<?xml version="1.0" encoding="utf-8"?>
<!-- Generator: Adobe Illustrator 15.0.0, SVG Export Plug-In . SVG Version: 6.00 Build 0)  -->
<!DOCTYPE svg PUBLIC "-//W3C//DTD SVG 1.0//EN" "http://www.w3.org/TR/2001/REC-SVG-20010904/DTD/svg10.dtd">
<svg version="1.0" id="Layer_1" xmlns="http://www.w3.org/2000/svg" xmlns:xlink="http://www.w3.org/1999/xlink" x="0px" y="0px"
	 width="512px" height="512px" viewBox="0 0 512 512" enable-background="new 0 0 512 512" xml:space="preserve">
<g>
	<g>
		
			<linearGradient id="SVGID_1_" gradientUnits="userSpaceOnUse" x1="427.001" y1="-136.0317" x2="427.0009" y2="357.0317" gradientTransform="matrix(1 0 0 -1 -171 366.5)">
			<stop  offset="0" style="stop-color:#ADADAD"/>
			<stop  offset="0.5521" style="stop-color:#FFFFFF"/>
		</linearGradient>
		<circle fill="url(#SVGID_1_)" cx="256.002" cy="256" r="246.532"/>
		<path d="M256.002,31.195c124.164,0,224.806,100.644,224.806,224.806c0,124.159-100.642,224.809-224.806,224.809
			c-124.16,0-224.81-100.649-224.81-224.809C31.192,131.838,131.842,31.195,256.002,31.195z"/>
	</g>
	<g>
		<linearGradient id="SVGID_2_" gradientUnits="userSpaceOnUse" x1="256.0024" y1="91.7236" x2="256.0024" y2="420.2778">
			<stop  offset="0" style="stop-color:#FFFFFF"/>
			<stop  offset="0.1755" style="stop-color:#FCFCFC"/>
			<stop  offset="0.3061" style="stop-color:#F3F3F3"/>
			<stop  offset="0.4222" style="stop-color:#E2E2E2"/>
			<stop  offset="0.5299" style="stop-color:#CCCCCC"/>
			<stop  offset="0.6318" style="stop-color:#AEAEAE"/>
			<stop  offset="0.7293" style="stop-color:#8A8A8A"/>
			<stop  offset="0.8234" style="stop-color:#5F5F5F"/>
			<stop  offset="0.9125" style="stop-color:#2F2F2F"/>
			<stop  offset="0.9877" style="stop-color:#000000"/>
		</linearGradient>
		<path fill="url(#SVGID_2_)" d="M364.418,286.467c-36.906-79.944-13.098-105.582-12.851-105.839
			c0.408-0.423,0.478-1.078,0.153-1.59c-0.347-0.493-0.979-0.678-1.524-0.462c-0.539,0.216-51.908,21.63-45.439,69.064
			c-14.099-12.664-79.903-77.65-39.647-154.062c0.254-0.461,0.177-1.054-0.202-1.438c-0.354-0.402-0.931-0.526-1.407-0.315
			c-0.871,0.36-21.39,9.118-37.757,31.307c-15.101,20.423-29.138,56.549-10.23,112.449c6.876,26.297-6.09,47.618-13.044,56.674
			c1.706-6.244,3.861-16.802,3.503-28.953c-0.554-17.764-6.968-42.293-34.328-58.148c-0.423-0.242-0.978-0.227-1.371,0.078
			c-0.424,0.308-0.608,0.808-0.493,1.305c0.108,0.478,10.341,47.184-7.619,68.802c-15.508,18.638-30.693,51.091-22.473,81.16
			c6.884,25.131,28.414,44.314,63.985,57.005c9.121,2.811,17.846,4.936,27.49,6.753c0.628,0.123,1.244-0.261,1.436-0.862
			c0.192-0.632-0.111-1.294-0.693-1.57c-18.265-7.917-37.107-24.41-23.101-57.914c13.329-28.888,10.942-43.783,8.274-50.159
			c6.887,3.889,20.575,13.96,17.163,31.671c-0.088,0.516,0.143,1.055,0.601,1.324c0.458,0.271,1.028,0.23,1.436-0.101
			c0.435-0.337,41.587-34.203,22.886-75.685c9.222,5.309,33.662,23.913,19.24,66.591c-4.797,18.343,8.277,31.54,8.832,32.092
			c0.432,0.427,1.086,0.488,1.587,0.156c0.484-0.307,0.692-0.953,0.476-1.516c-0.423-1.14-10.17-27.397,10.974-41.904
			c-1.117,6.729-2.879,23.415,4.689,32.51c6.8,8.186,13.361,21.607,11.366,34.72c-1.41,9.218-6.869,17.011-16.271,23.086
			c-0.539,0.377-0.732,1.024-0.463,1.618c0.27,0.576,0.939,0.846,1.556,0.653c23.216-7.685,53.672-22.938,66.946-52.042
			C377.901,341.475,376.655,315.756,364.418,286.467z"/>
	</g>
</g>
</svg>
